<?xml version="1.0" standalone="no"?>
<!DOCTYPE svg PUBLIC "-//W3C//DTD SVG 20010904//EN"
 "http://www.w3.org/TR/2001/REC-SVG-20010904/DTD/svg10.dtd">
<svg version="1.0" xmlns="http://www.w3.org/2000/svg"
 width="310.000000pt" height="500.000000pt" viewBox="0 0 310.000000 500.000000"
 preserveAspectRatio="xMidYMid meet">
<metadata>
Created by potrace 1.12, written by Peter Selinger 2001-2015
</metadata>
<g transform="translate(0.000000,500.000000) scale(0.100000,-0.100000)"
fill="#000000" stroke="none">
<path d="M1615 4823 c-111 -58 -220 -245 -282 -482 -18 -70 -26 -134 -30 -232
-6 -149 2 -233 48 -509 16 -96 29 -182 29 -191 0 -9 -69 -88 -154 -176 -321
-335 -464 -543 -526 -764 -96 -346 13 -759 264 -997 117 -111 236 -173 399
-206 89 -19 272 -21 364 -5 35 6 66 9 69 6 7 -7 62 -329 80 -475 27 -214 6
-325 -81 -421 -72 -79 -214 -128 -323 -110 -66 10 -110 35 -140 79 l-23 34 56
21 c94 34 151 103 162 195 11 98 -41 195 -131 243 -54 28 -165 30 -216 3 -92
-48 -143 -133 -156 -259 -10 -99 12 -162 88 -242 104 -112 261 -175 434 -175
239 0 391 122 438 353 9 42 16 100 16 129 0 68 -31 283 -70 494 -18 91 -30
167 -28 169 2 1 37 19 78 40 103 52 223 172 273 276 178 363 23 810 -323 930
-52 18 -88 23 -180 23 l-115 1 -42 205 c-23 113 -42 216 -43 229 0 15 20 45
58 85 96 103 160 195 222 321 64 129 101 243 127 395 23 133 23 450 -1 580
-37 204 -115 374 -195 427 -40 27 -102 30 -146 6z m146 -50 c42 -38 94 -131
122 -218 69 -213 80 -571 26 -823 -51 -236 -143 -411 -319 -610 l-82 -93 51
-246 c28 -135 52 -248 55 -250 2 -2 37 0 78 6 264 37 495 -128 579 -414 20
-68 29 -192 19 -268 -28 -224 -151 -398 -347 -493 -43 -21 -79 -39 -80 -39 -2
-1 11 -70 27 -155 96 -498 95 -670 -3 -816 -38 -57 -108 -112 -174 -138 -26
-10 -87 -20 -134 -23 -203 -13 -416 85 -493 227 -24 43 -28 64 -28 120 1 83
16 142 47 187 95 140 297 128 370 -22 23 -47 27 -64 22 -106 -11 -93 -72 -159
-167 -182 -51 -12 -52 -12 -46 -45 8 -50 44 -92 102 -119 178 -81 408 9 496
195 37 77 46 184 29 329 -13 103 -81 526 -86 531 -2 2 -49 -4 -106 -14 -195
-32 -395 -7 -547 70 -290 146 -472 472 -472 845 0 185 42 333 144 505 87 147
173 252 417 508 l159 166 -25 144 c-67 383 -78 535 -50 708 48 292 214 570
341 570 25 0 45 -10 75 -37z"/>
<path d="M1672 4442 c-159 -85 -272 -359 -273 -666 0 -98 26 -326 40 -354 5
-8 39 24 101 93 174 195 262 327 314 473 28 79 31 98 31 212 0 108 -3 132 -22
172 -37 80 -117 110 -191 70z m133 -45 c22 -22 36 -48 44 -85 35 -163 -15
-349 -146 -544 -53 -79 -233 -292 -240 -284 -3 2 -11 49 -19 103 -33 234 -6
445 81 628 88 187 201 261 280 182z"/>
<path d="M1419 2954 c-36 -32 -122 -110 -191 -171 -288 -256 -390 -452 -389
-746 0 -221 59 -375 191 -507 42 -41 102 -90 134 -109 140 -83 335 -124 488
-104 92 13 164 34 162 49 -1 5 -41 215 -90 467 -97 503 -86 472 -160 441 -102
-42 -188 -139 -219 -249 -33 -111 -4 -254 70 -351 35 -46 31 -49 -19 -15 -62
43 -121 113 -158 189 -63 127 -47 293 40 427 52 82 152 169 240 212 55 26 72
39 68 51 -3 10 -23 112 -46 227 -22 116 -44 219 -49 229 -7 18 -14 14 -72 -40z
m92 -210 c21 -110 39 -200 39 -201 0 0 -34 -20 -77 -43 -184 -101 -304 -289
-304 -478 -1 -135 46 -236 155 -340 84 -79 212 -153 222 -127 4 10 -10 32 -41
64 -138 142 -178 301 -112 444 14 30 41 72 61 95 35 39 139 102 150 91 7 -7
30 -120 106 -514 33 -170 62 -320 65 -333 7 -29 -17 -38 -134 -52 -264 -32
-547 97 -675 309 -61 100 -88 199 -94 342 -10 275 75 469 304 690 93 90 287
259 292 255 2 -2 21 -93 43 -202z"/>
<path d="M1663 2278 c6 -22 154 -735 177 -850 6 -32 14 -58 17 -58 18 0 107
67 151 114 88 93 125 191 126 331 1 273 -184 485 -422 485 -51 0 -54 -1 -49
-22z m198 -44 c102 -46 200 -173 228 -295 30 -128 3 -287 -64 -386 -31 -46
-125 -133 -143 -133 -4 0 -45 183 -91 408 -46 224 -86 416 -89 426 -5 18 -1
19 47 13 28 -3 79 -18 112 -33z"/>
</g>
</svg>
